<?xml version="1.0" encoding="utf-8"?><!-- Uploaded to: SVG Repo, www.svgrepo.com, Generator: SVG Repo Mixer Tools -->
<svg fill="#000000" width="800px" height="800px" viewBox="0 0 24 24" id="mobile-payment-done-2" data-name="Flat Line" xmlns="http://www.w3.org/2000/svg" class="icon flat-line"><path id="secondary" d="M20,3H17l-.5,2h-3L13,3H10A1,1,0,0,0,9,4V20a1,1,0,0,0,1,1H20a1,1,0,0,0,1-1V4A1,1,0,0,0,20,3Z" style="fill: rgb(44, 169, 188); stroke-width: 2;"></path><polyline id="primary" points="13 12 14.09 13.25 16 10.75" style="fill: none; stroke: rgb(0, 0, 0); stroke-linecap: round; stroke-linejoin: round; stroke-width: 2;"></polyline><path id="primary-2" data-name="primary" d="M4,7H9V17H4a1,1,0,0,1-1-1V8A1,1,0,0,1,4,7ZM3,11H9m12,9V4a1,1,0,0,0-1-1H10A1,1,0,0,0,9,4V20a1,1,0,0,0,1,1H20A1,1,0,0,0,21,20ZM13.5,5h3L17,3H13Z" style="fill: none; stroke: rgb(0, 0, 0); stroke-linecap: round; stroke-linejoin: round; stroke-width: 2;"></path></svg>