<?xml version="1.0" encoding="utf-8"?><!-- Uploaded to: SVG Repo, www.svgrepo.com, Generator: SVG Repo Mixer Tools -->
<svg fill="#000000" width="800px" height="800px" viewBox="0 0 24 24" id="mobile-payment-dollar" data-name="Flat Line" xmlns="http://www.w3.org/2000/svg" class="icon flat-line"><path id="secondary" d="M17,6V4a1,1,0,0,0-1-1H13l-.5,2h-3L9,3H6A1,1,0,0,0,5,4V20a1,1,0,0,0,1,1h7.63A8,8,0,0,1,17,6Z" style="fill: rgb(44, 169, 188); stroke-width: 2;"></path><path id="primary" d="M19,11H16.5A1.5,1.5,0,0,0,15,12.5h0A1.5,1.5,0,0,0,16.5,14h1A1.5,1.5,0,0,1,19,15.5h0A1.5,1.5,0,0,1,17.5,17H15" style="fill: none; stroke: rgb(0, 0, 0); stroke-linecap: round; stroke-linejoin: round; stroke-width: 2;"></path><path id="primary-2" data-name="primary" d="M14,21H6a1,1,0,0,1-1-1V4A1,1,0,0,1,6,3H16a1,1,0,0,1,1,1V6" style="fill: none; stroke: rgb(0, 0, 0); stroke-linecap: round; stroke-linejoin: round; stroke-width: 2;"></path><path id="primary-3" data-name="primary" d="M17,11V10m0,8V17M13,3H9l.5,2h3Z" style="fill: none; stroke: rgb(0, 0, 0); stroke-linecap: round; stroke-linejoin: round; stroke-width: 2;"></path></svg>