<?xml version="1.0" encoding="utf-8"?><!-- Uploaded to: SVG Repo, www.svgrepo.com, Generator: SVG Repo Mixer Tools -->
<svg width="800px" height="800px" viewBox="0 0 64 64" id="Layer_1" data-name="Layer 1" xmlns="http://www.w3.org/2000/svg"><defs><style>.cls-1{fill:none;stroke:#000000;stroke-linecap:round;stroke-linejoin:round;stroke-width:2px;}</style></defs><title>track, dollar, truck, delivery, transport</title><path class="cls-1" d="M34.93,21.26a7.61,7.61,0,0,1,15.22,0"/><path class="cls-1" d="M50.14,21.26a7.61,7.61,0,0,1-7.61,7.61"/><path class="cls-1" d="M42.54,21.26a1.64,1.64,0,1,1,1.64-1.64"/><path class="cls-1" d="M42.54,24.54a1.64,1.64,0,0,1-1.64-1.64"/><path class="cls-1" d="M42.54,21.26a1.64,1.64,0,1,1,0,3.28"/><line class="cls-1" x1="42.54" y1="17.97" x2="42.54" y2="16.52"/><line class="cls-1" x1="42.54" y1="25.99" x2="42.54" y2="24.54"/><path class="cls-1" d="M47.55,54a2.63,2.63,0,1,1-5.25,0"/><path class="cls-1" d="M27.48,54a2.63,2.63,0,1,1-5.25,0"/><path class="cls-1" d="M36.79,31a5.6,5.6,0,0,1,2.08,4.35V47.11"/><path class="cls-1" d="M41.94,33.15l5.12,0a2.81,2.81,0,0,1,2.7,2.1L53,47.52a3.16,3.16,0,0,1-3.15,3.15H22.58a5.62,5.62,0,0,1-5.6-5.6V36.34"/><polyline class="cls-1" points="41.94 37.16 41.94 42.12 47.18 42.12"/><line class="cls-1" x1="44.97" y1="56.58" x2="17.97" y2="56.58"/><line class="cls-1" x1="18.97" y1="53.16" x2="12.13" y2="53.16"/><path class="cls-1" d="M19.39,34.37a8.89,8.89,0,1,0,7.38-15.86,9,9,0,0,0-1.15-.22l-.3,0"/><path class="cls-1" d="M23,18.34a8.89,8.89,0,0,0-5.49,14.22"/><path class="cls-1" d="M29.89,28.52a5.57,5.57,0,0,0-3.61-6.7l-.36-.11"/><path class="cls-1" d="M23.08,32.49a5.56,5.56,0,0,0,4.62-.82"/><path class="cls-1" d="M22,32.06a5.59,5.59,0,0,0,1.11.42"/><path class="cls-1" d="M23.57,21.61a5.57,5.57,0,0,0-3.44,9"/><circle class="cls-1" cx="24.5" cy="27.1" r="2.43" transform="translate(-7.96 43.87) rotate(-75.21)"/><path class="cls-1" d="M16.95,36.36a11.94,11.94,0,1,0,8.21-21.19"/><path class="cls-1" d="M22.45,15.33a11.95,11.95,0,0,0-7.39,19.09"/><polyline class="cls-1" points="24.12 24.7 23.57 21.61 22.99 18.35 22.45 15.33 21.96 12.6 23.47 9.93"/><polyline class="cls-1" points="17.49 32.57 12.94 36.02 12.7 38.65"/><line class="cls-1" x1="20.13" y1="30.56" x2="17.49" y2="32.57"/><line class="cls-1" x1="25.86" y1="29.12" x2="27.69" y2="31.66"/><line class="cls-1" x1="33.2" y1="10.63" x2="35.35" y2="13.23"/><line class="cls-1" x1="51.81" y1="10.72" x2="50.14" y2="13.51"/><line class="cls-1" x1="42.54" y1="7.42" x2="42.54" y2="10.63"/><polyline class="cls-1" points="18.78 49.18 22.14 45.81 23.97 47.65 28.93 42.69 31.38 45.13 34.51 42"/></svg>